HIERARCHY
ROOT Hips
{
	OFFSET -0.001795 -0.223333 0.028219
	CHANNELS 6 Xposition Yposition Zposition Zrotation Yrotation Xrotation 
	JOINT LeftUpLeg
	{
		OFFSET 0.069520 -0.091406 -0.006815
		CHANNELS 3 Zrotation Yrotation Xrotation
		JOINT LeftLeg
		{
			OFFSET 0.034277 -0.375199 -0.004496
			CHANNELS 3 Zrotation Yrotation Xrotation
			JOINT LeftFoot
			{
				OFFSET -0.013596 -0.397961 -0.043693
				CHANNELS 3 Zrotation Yrotation Xrotation
				JOINT LeftToe
				{
					OFFSET 0.026358 -0.055791 0.119288
					CHANNELS 3 Zrotation Yrotation Xrotation
					End Site
					{
						OFFSET 0.000000 0.000000 0.000000
					}
				}
			}
		}
	}
	JOINT RightUpLeg
	{
		OFFSET -0.067670 -0.090522 -0.004320
		CHANNELS 3 Zrotation Yrotation Xrotation
		JOINT RightLeg
		{
			OFFSET -0.038290 -0.382569 -0.008850
			CHANNELS 3 Zrotation Yrotation Xrotation
			JOINT RightFoot
			{
				OFFSET 0.015774 -0.398415 -0.042312
				CHANNELS 3 Zrotation Yrotation Xrotation
				JOINT RightToe
				{
					OFFSET -0.025372 -0.048144 0.123348
					CHANNELS 3 Zrotation Yrotation Xrotation
					End Site
					{
						OFFSET 0.000000 0.000000 0.000000
					}
				}
			}
		}
	}
	JOINT Spine
	{
		OFFSET -0.002533 0.108963 -0.026696
		CHANNELS 3 Zrotation Yrotation Xrotation
		JOINT Spine1
		{
			OFFSET 0.005487 0.135180 0.001092
			CHANNELS 3 Zrotation Yrotation Xrotation
			JOINT Spine2
			{
				OFFSET 0.001457 0.052922 0.025425
				CHANNELS 3 Zrotation Yrotation Xrotation
				JOINT Neck
				{
					OFFSET -0.002778 0.213870 -0.042857
					CHANNELS 3 Zrotation Yrotation Xrotation
					JOINT Head
					{
						OFFSET 0.005152 0.064970 0.051349
						CHANNELS 3 Zrotation Yrotation Xrotation
						End Site
						{
							OFFSET 0.000000 0.000000 0.000000
						}
					}
				}
				JOINT LeftShoulder
				{
					OFFSET 0.078845 0.121749 -0.034090
					CHANNELS 3 Zrotation Yrotation Xrotation
					JOINT LeftArm
					{
						OFFSET 0.090977 0.030469 -0.008868
						CHANNELS 3 Zrotation Yrotation Xrotation
						JOINT LeftForeArm
						{
							OFFSET 0.259612 -0.012772 -0.027456
							CHANNELS 3 Zrotation Yrotation Xrotation
							JOINT LeftHand
							{
								OFFSET 0.249234 0.008986 -0.001171
								CHANNELS 3 Zrotation Yrotation Xrotation
								End Site
								{
									OFFSET 0.000000 0.000000 0.000000
								}
							}
						}
					}
				}
				JOINT RightShoulder
				{
					OFFSET -0.081759 0.118833 -0.038615
					CHANNELS 3 Zrotation Yrotation Xrotation
					JOINT RightArm
					{
						OFFSET -0.096012 0.032551 -0.009143
						CHANNELS 3 Zrotation Yrotation Xrotation
						JOINT RightForeArm
						{
							OFFSET -0.253742 -0.013329 -0.021401
							CHANNELS 3 Zrotation Yrotation Xrotation
							JOINT RightHand
							{
								OFFSET -0.255298 0.007772 -0.005559
								CHANNELS 3 Zrotation Yrotation Xrotation
								End Site
								{
									OFFSET 0.000000 0.000000 0.000000
								}
							}
						}
					}
				}
			}
		}
	}
}
MOTION
Frames: 16
Frame Time: 0.050000
2.656065 0.931759 0.945183 7.687081 -7.368742 0.523552 -1.530122 -2.130784 -23.057918 5.008784 -1.609187 15.896637 -14.478164 -22.442258 9.505356 0.000000 0.000000 0.000000 8.471914 -1.107995 5.147026 -12.026055 5.707443 25.365906 15.039720 32.023240 5.600395 0.000000 0.000000 0.000000 -5.829472 0.295754 9.975390 0.635999 -0.242616 -4.566311 3.200253 0.550814 9.474354 4.864703 -2.461554 -15.088296 0.000000 0.000000 0.000000 -25.101771 11.479027 -8.073645 -45.908712 2.648429 -7.007427 -20.168132 -37.974858 9.242290 0.000000 0.000000 0.000000 17.422963 -5.446260 -5.270766 44.723318 -2.470238 -5.280791 25.697595 38.800758 9.548072 0.000000 0.000000 0.000000 
2.657469 0.928113 0.997736 7.968784 -12.521291 -0.211514 -3.015283 -2.053515 -20.764578 6.969246 -2.162952 20.583775 -12.768450 -20.853479 7.516238 0.000000 0.000000 0.000000 5.340004 -0.417553 1.597738 -6.951593 6.821572 37.686522 13.273442 24.973645 7.690598 0.000000 0.000000 0.000000 -7.409411 0.491185 8.733098 1.515399 -0.679184 -4.391111 2.665164 -1.875708 10.354994 4.252537 -2.741771 -13.582408 0.000000 0.000000 0.000000 -23.799344 11.261611 -6.267417 -46.148200 1.345911 -6.980219 -18.453630 -37.987348 9.340760 0.000000 0.000000 0.000000 16.611583 -4.397161 -5.653917 45.748033 -4.795902 -6.118586 25.496075 37.512352 8.350072 0.000000 0.000000 0.000000 
2.655620 0.915066 1.045316 8.417671 -19.251217 -2.015069 -2.733066 -1.624307 -17.640085 6.022461 -1.381945 26.725542 -8.396630 -17.833206 -0.922439 0.000000 0.000000 0.000000 2.129363 0.559185 -5.948106 1.090567 8.258890 56.003659 8.864723 13.226653 9.362583 0.000000 0.000000 0.000000 -8.041355 0.760768 10.499320 1.317034 -0.668400 -3.848852 2.855605 -5.167097 9.388161 2.620402 -2.305174 -13.112567 0.000000 0.000000 0.000000 -24.868845 11.658616 -4.708685 -44.025502 -0.249668 -6.696872 -15.989070 -39.214309 9.565998 0.000000 0.000000 0.000000 16.924143 -2.337365 -6.289898 45.136654 -5.879029 -5.995402 23.419472 37.854039 6.784832 0.000000 0.000000 0.000000 
2.649317 0.903061 1.084005 8.322137 -25.172920 -4.002586 -2.172390 -1.231558 -13.689847 5.479371 -0.214621 31.040163 -4.110261 -11.659128 -8.176404 0.000000 0.000000 0.000000 0.136677 1.636579 -14.346971 10.835771 5.856951 66.548355 0.033008 -2.939898 4.935278 0.000000 0.000000 0.000000 -7.882427 1.023162 12.716238 1.065516 -0.609247 -3.422042 2.222778 -8.040424 10.253046 0.095750 -1.287306 -16.339722 0.000000 0.000000 0.000000 -24.320854 9.354588 -1.532305 -42.468279 -4.593456 -5.711509 -9.875676 -40.360822 8.047267 0.000000 0.000000 0.000000 17.888034 -0.785970 -7.301245 45.109723 -6.009009 -5.715147 21.663959 39.188612 5.716441 0.000000 0.000000 0.000000 
2.637077 0.897628 1.116464 7.936888 -30.411992 -4.841314 -1.049418 -0.727753 -8.041902 3.589591 1.041281 29.095800 -1.462751 -4.766244 -10.120235 0.000000 0.000000 0.000000 -1.249721 2.942966 -22.012698 18.147340 2.218126 65.513751 -5.776600 -13.161099 -3.837872 0.000000 0.000000 0.000000 -7.260468 1.175181 14.027172 1.348457 -0.739073 -2.873350 1.597991 -11.218239 9.618910 -1.360694 -0.976141 -18.022871 0.000000 0.000000 0.000000 -22.434966 8.233795 0.372227 -43.050175 -7.372633 -4.881885 -4.871437 -41.554307 6.899618 0.000000 0.000000 0.000000 17.440832 1.203785 -7.604076 46.927516 -5.700788 -5.703780 19.392117 37.486862 4.081215 0.000000 0.000000 0.000000 
2.618520 0.900106 1.145936 7.127014 -36.518345 -4.754839 0.013798 -0.172455 -2.355941 2.606594 1.495734 25.075873 0.761025 2.387913 -7.665316 0.000000 0.000000 0.000000 -0.914372 4.144200 -26.191596 19.476431 1.924307 55.534811 -9.277459 -21.471019 -5.254756 0.000000 0.000000 0.000000 -6.083635 1.206188 14.701309 0.833130 -0.562959 -3.345660 1.103944 -12.732348 10.746017 -3.643190 -0.218744 -19.699022 0.000000 0.000000 0.000000 -19.595029 7.409215 1.318010 -44.903547 -9.200765 -3.876133 -1.177236 -45.855286 6.863943 0.000000 0.000000 0.000000 18.172200 2.380070 -8.659227 47.272602 -6.811614 -5.982047 18.676859 36.951948 3.381336 0.000000 0.000000 0.000000 
2.592769 0.904789 1.173325 6.361097 -41.293854 -3.418585 1.405857 0.362277 1.749509 1.010200 1.849787 21.164909 2.159098 6.449733 -5.322888 0.000000 0.000000 0.000000 -1.258290 5.103481 -29.025721 15.074334 2.721705 42.188688 -11.208615 -24.565364 -6.791622 0.000000 0.000000 0.000000 -4.704460 1.130994 15.065861 0.321472 -0.397093 -4.014858 1.325463 -13.986047 9.996223 -4.001933 -0.307699 -19.777281 0.000000 0.000000 0.000000 -18.546217 8.407774 1.095069 -44.856665 -11.701272 -2.649546 0.768921 -47.375791 6.815050 0.000000 0.000000 0.000000 16.610124 2.600920 -8.781451 49.902677 -7.948305 -7.187012 17.482908 37.129909 2.480807 0.000000 0.000000 0.000000 
2.559424 0.909943 1.199321 5.362853 -45.199842 -1.652585 1.922354 0.728744 4.314714 1.553261 1.792283 20.382704 3.463832 8.331413 0.862732 0.000000 0.000000 0.000000 0.640629 5.895457 -29.767952 10.992716 2.841347 33.260424 -10.916413 -24.178067 -2.240580 0.000000 0.000000 0.000000 -4.533895 1.097002 14.329220 1.572116 -0.742604 -2.517815 1.848972 -13.803141 7.324990 -2.631018 -1.025066 -20.094490 0.000000 0.000000 0.000000 -20.001264 8.730660 1.416025 -43.575194 -11.039402 -2.936123 -1.570617 -52.759151 9.118772 0.000000 0.000000 0.000000 16.248084 2.453903 -8.760419 50.304187 -8.660389 -7.736201 14.919647 36.641944 1.758915 0.000000 0.000000 0.000000 
2.518201 0.913288 1.224083 3.276154 -48.178515 1.065415 4.469880 0.908449 4.049331 2.444174 2.468912 23.889942 4.320495 8.036093 9.008439 0.000000 0.000000 0.000000 3.241242 5.733968 -27.632879 9.431553 2.870083 29.807276 -8.859895 -19.797764 -0.659019 0.000000 0.000000 0.000000 -2.555604 0.544691 12.041415 1.025913 -0.377369 -1.614299 3.111902 -12.800863 5.165984 -2.870731 -0.718750 -19.222812 0.000000 0.000000 0.000000 -21.430929 9.042843 1.737056 -43.487181 -10.480760 -3.311103 -4.827888 -54.588155 11.366355 0.000000 0.000000 0.000000 14.804745 2.023117 -8.255648 51.771630 -9.851703 -8.831837 13.166678 34.471802 1.079379 0.000000 0.000000 0.000000 
2.473895 0.913275 1.247117 1.947012 -51.634666 1.910915 6.426140 0.967544 1.022259 5.785156 5.159534 36.232815 1.455905 2.635627 15.905552 0.000000 0.000000 0.000000 5.471169 4.793725 -23.738307 8.205608 3.243154 28.560517 -9.242104 -18.179523 -2.831282 0.000000 0.000000 0.000000 -1.560848 0.434945 11.863859 0.484082 -0.219217 -2.398364 3.791672 -11.246909 5.611830 -3.648301 -0.420612 -19.550843 0.000000 0.000000 0.000000 -21.604603 10.139292 1.264389 -44.712275 -9.917285 -3.527292 -9.577460 -56.369741 14.977334 0.000000 0.000000 0.000000 13.765869 2.053805 -7.878127 51.617487 -9.453290 -8.824137 14.677053 32.285037 1.308211 0.000000 0.000000 0.000000 
2.430861 0.913861 1.267959 0.951511 -55.303016 1.995492 6.460335 0.988790 -5.760488 16.669546 5.854787 52.033387 -6.242197 -7.588912 16.982202 0.000000 0.000000 0.000000 8.317979 3.233064 -17.808704 5.713615 3.489127 26.154050 -8.372869 -12.571972 -5.246167 0.000000 0.000000 0.000000 -0.236216 0.358789 12.637036 -0.929911 0.147985 -3.993128 4.243018 -9.375247 7.304440 -3.670479 -0.540279 -19.557707 0.000000 0.000000 0.000000 -23.061472 11.574381 0.998473 -45.685634 -10.372541 -3.834255 -11.169844 -56.226449 16.274334 0.000000 0.000000 0.000000 14.122771 2.826712 -8.073701 51.559809 -8.415447 -8.236374 12.528039 30.295241 0.730301 0.000000 0.000000 0.000000 
2.389177 0.915078 1.287493 0.625558 -59.461869 1.686170 4.089574 1.008057 -12.672500 27.167248 3.851767 60.714361 -10.327474 -13.506368 14.423010 0.000000 0.000000 0.000000 10.274663 1.871022 -12.425625 3.244913 3.405127 23.165149 -7.621269 -6.951922 -7.331475 0.000000 0.000000 0.000000 0.050208 0.499044 13.676386 -1.229470 0.157980 -4.818105 4.317723 -6.002342 8.695943 -3.373007 -0.890151 -21.755913 0.000000 0.000000 0.000000 -24.747544 10.964888 1.918995 -46.370556 -10.788714 -4.245233 -8.271640 -55.187622 14.125469 0.000000 0.000000 0.000000 13.986827 3.133697 -7.793758 51.842465 -6.732254 -7.630083 11.682257 30.081622 0.573396 0.000000 0.000000 0.000000 
2.346144 0.918588 1.306746 1.531988 -64.561510 1.081454 1.205607 1.644516 -20.499887 34.589721 1.720658 63.371930 -13.087624 -18.704272 10.791511 0.000000 0.000000 0.000000 10.646619 0.595725 -7.046535 0.451712 3.125885 19.797768 -6.606703 -1.795363 -8.114929 0.000000 0.000000 0.000000 -0.923946 0.801488 14.068961 -1.990146 0.309998 -5.824654 5.446258 -3.132579 10.178911 -3.110309 -1.246753 -23.683627 0.000000 0.000000 0.000000 -25.779122 12.369033 1.339924 -46.704281 -10.018052 -4.731708 -6.831598 -51.873625 12.293393 0.000000 0.000000 0.000000 12.852241 3.196054 -7.273084 52.397882 -2.977820 -6.513431 11.336810 31.414630 0.371852 0.000000 0.000000 0.000000 
2.299453 0.920818 1.327271 2.811799 -69.425452 0.144169 -2.049577 2.841579 -27.775593 36.356410 1.194582 60.745513 -13.908352 -21.590320 6.138197 0.000000 0.000000 0.000000 10.270583 -0.189813 -2.171097 -1.967873 2.743898 16.761115 -4.915922 4.366622 -8.786457 0.000000 0.000000 0.000000 -1.098549 0.835022 13.546090 -1.906836 0.335320 -5.619942 5.650679 0.298474 10.899850 -3.285495 -1.215458 -24.179756 0.000000 0.000000 0.000000 -26.290787 13.280233 0.745197 -47.696806 -8.989027 -5.136175 -9.467360 -46.780920 11.702813 0.000000 0.000000 0.000000 11.377761 2.735429 -6.584148 53.566904 0.212978 -5.915755 11.131817 34.997809 0.128652 0.000000 0.000000 0.000000 
2.246726 0.920509 1.348783 5.237922 -74.248273 -1.974254 -4.307697 4.475340 -33.168137 32.699939 2.261706 55.108277 -12.975432 -20.937633 1.665461 0.000000 0.000000 0.000000 8.308778 -0.424007 2.569440 -3.425297 2.371973 14.480064 -3.259381 7.806279 -8.073727 0.000000 0.000000 0.000000 -1.552263 0.934442 13.156162 -2.664990 0.483457 -6.496265 6.065484 2.907015 11.740713 -3.628048 -1.126842 -23.022419 0.000000 0.000000 0.000000 -26.182146 15.508555 -0.823580 -48.481962 -6.833344 -5.713148 -12.447709 -42.883247 11.810062 0.000000 0.000000 0.000000 10.670162 2.503731 -6.465808 54.300871 1.586113 -5.832194 13.583644 38.951791 0.558354 0.000000 0.000000 0.000000 
2.187785 0.917246 1.370793 7.878046 -77.473234 -4.133820 -5.957718 5.767455 -36.729831 24.126703 3.258870 45.676134 -12.110306 -18.616417 -1.017021 0.000000 0.000000 0.000000 6.195897 0.104520 7.976233 -3.672263 1.777507 11.991682 -1.905232 9.370973 -7.218206 0.000000 0.000000 0.000000 -1.680127 0.681360 11.143601 -2.299736 0.547673 -5.696838 5.471308 6.111749 11.405905 -4.503986 -0.501204 -21.283827 0.000000 0.000000 0.000000 -25.570930 17.278100 -2.693120 -48.961083 -3.554250 -6.519069 -15.678705 -38.430215 11.487177 0.000000 0.000000 0.000000 10.621138 2.237758 -6.399837 54.267164 2.061974 -5.583494 16.854954 43.547865 1.593270 0.000000 0.000000 0.000000 
